<svg width="547" height="359" viewBox="0 0 547 359" fill="none" xmlns="http://www.w3.org/2000/svg">
<path d="M465.178 2.94818L512.176 2.94818C520.053 2.94818 529.436 5.02628 532.732 7.03056C535.285 8.5828 539.032 12.1522 539.032 13.8345C539.032 16.1559 542.016 18.4703 542.016 20.8905C542.016 25.0534 545 29.1988 545 33.4401V50.3492C545 63.2166 543.508 76.0967 543.508 88.9303C543.508 119.728 536.048 150.403 536.048 181.212V212.763C536.048 217.111 534.517 221.789 536.877 226.093C538.636 229.303 539.919 232.563 540.441 235.821C542.539 248.896 543.508 261.884 543.508 275.006C543.508 278.098 541.141 281.07 540.607 284.154C540.094 287.118 540.964 290.068 539.778 293.024C536.293 301.711 539.032 310.912 539.032 319.661C539.032 330.538 538.278 342.707 514.58 351.513C508.203 353.883 500.759 353.868 491.288 354.588C478.747 355.541 466.948 356.301 453.905 356.301H365.628C287.26 356.301 209.383 357.208 131.052 357.208C98.3219 357.208 66.7323 357.702 35.8954 354.033C27 352.975 29 354.033 21.5 350.231C16.5 346.731 15.5 345.231 14.5929 342.231C13.8469 335.231 13.8469 334.53 13.8469 330.231C13.8469 313.884 11 303.231 11 285.231C12.5 267.731 13.8469 253.869 13.8469 238.013C13.8469 205.231 -2.09283 172.974 7.13287 140.439C9.69519 131.403 6 124.231 7.13287 113.401V92.2571C7.13287 78.5626 7.63904 63.0501 1.67096 50.3492C1.67096 39.2306 4.5 31.2306 7.13287 20.8905C11.5563 15.3531 24.2898 12.1969 37.0559 7.96296C41.0824 6.62754 51.8484 5.16822 57.115 4.40977C64.7327 3.31275 77.1671 3.85538 85.3802 3.85538C99.9142 3.85538 114.345 3.51687 128.731 3.40178C140.892 3.30449 152.69 2.49458 164.871 2.49458C186.45 2.49458 210.562 1.62227 231.679 3.04898C253.018 4.49061 272.1 3.99529 293.597 3.42698C314.886 2.86419 337.122 3.40178 358.5 3.40178C377.101 3.40178 395.489 4.30897 413.704 4.30897C424.379 4.30897 435.863 4.68592 446.445 4.28377C452.86 4.03997 458.352 2.94818 465.178 2.94818Z" stroke="black" stroke-width="3" stroke-linecap="round"/>
</svg>
