<svg width="659" height="359" viewBox="0 0 659 359" fill="none" xmlns="http://www.w3.org/2000/svg">
<path d="M655.676 305.615V336.006C655.676 341.099 651.842 347.167 648.144 349.298C645.28 350.949 638.694 353.371 635.59 353.371C631.307 353.371 627.037 355.301 622.571 355.301C614.89 355.301 607.242 357.231 599.416 357.231H568.218C544.477 357.231 520.712 356.266 497.033 356.266C440.209 356.266 383.612 351.442 326.766 351.442L268.554 351.442C260.531 351.442 251.899 350.452 243.957 351.978C238.036 353.116 232.02 353.945 226.01 354.283C201.885 355.639 177.921 356.266 153.71 356.266C148.005 356.266 142.521 354.735 136.832 354.39C131.362 354.058 125.92 354.621 120.465 353.854C104.438 351.601 87.4605 353.371 71.3193 353.371C51.2503 353.371 28.7963 352.884 12.5488 337.56C8.17688 333.436 8.20453 328.623 6.87634 322.499C5.11774 314.39 3.71466 306.76 3.71466 298.326V241.243C3.71466 190.568 2.04083 140.21 2.04083 89.5593C2.04083 68.395 1.13068 47.9683 7.89929 28.0282C9.70868 22.6978 13.2133 18.9962 15.8965 14.2533C17.5233 11.3778 20.5049 7.27841 23.4288 6.05273C30.8422 2.94516 37.2098 3.15845 45.1423 3.15845C75.3035 3.15845 104.853 4.35187 134.739 9.48303C163.734 14.4612 192.709 13.7709 221.965 13.7709C281.989 13.7709 341.966 3.46384 401.996 9.42944C418.669 11.0863 435.294 7.5864 451.882 9.42944C465.259 10.9157 477.567 7.29556 490.895 9.42944C516.162 9.42944 538.209 7.89261 561.643 4.03345C577.894 1.35727 604.437 1.41034 620.465 5.89758C630.682 8.7579 638.611 20.5236 646.423 28.7786C648.887 31.3822 651.58 38.3438 652.979 41.7494C655.003 46.6752 654.002 54.7157 654.002 60.0265C654.002 69.4247 654.627 78.7561 654.839 88.0586C655.019 95.922 656.513 103.551 656.513 111.428C656.513 125.381 658.122 140.973 655.49 154.628C652.83 168.426 653.744 180.765 654.793 194.666C655.831 208.432 654.839 222.811 654.839 236.634C654.839 248.662 653.165 260.552 653.165 272.33C653.165 279.233 652.47 286.659 653.212 293.502C653.662 297.65 655.676 301.201 655.676 305.615Z" stroke="black" stroke-width="3" stroke-linecap="round"/>
</svg>
