<svg width="554" height="359" viewBox="0 0 554 359" fill="none" xmlns="http://www.w3.org/2000/svg">
<path d="M81.9676 356.513H34.8839C26.9923 356.513 17.5922 354.435 14.2899 352.431C11.7324 350.878 7.97888 347.309 7.97888 345.627C7.97888 343.305 4.98944 340.991 4.98944 338.571C4.98944 334.408 2 330.262 2 326.021L2 309.112C2 296.245 3.49472 283.365 3.49472 270.531C3.49472 239.733 10.9683 209.058 10.9683 178.249L10.9683 146.699C10.9683 142.351 12.5018 137.672 10.1379 133.368C8.37528 130.158 7.09075 126.898 6.5672 123.641C4.46541 110.565 3.49472 97.5771 3.49472 84.4549C3.49472 81.3629 5.86632 78.3908 6.40112 75.3073C6.91521 72.3431 6.04345 69.3933 7.23152 66.4369C10.7224 57.7502 7.97888 48.5489 7.97888 39.8006C7.97888 28.9235 8.73405 16.7538 32.4757 7.94794C38.8643 5.57837 46.3216 5.59338 55.8099 4.87354C68.3733 3.92041 80.1937 3.15994 93.261 3.15994L181.699 3.15994C260.21 3.15994 338.228 2.25275 416.702 2.25275C449.492 2.25275 466.576 0.876984 497.469 4.54547C505.728 5.52612 511.463 7.42554 518.811 8.87982C523.266 9.76151 529.617 11.3775 531.516 12.9622C536.33 16.9801 536 20.4313 536 24.7306C536 41.0775 540.764 54.2306 540.764 74.1733C540.764 89.2306 534.121 105.592 534.121 121.448C534.121 153.98 550.089 186.487 540.847 219.022C538.28 228.059 543.702 237.07 540.847 246.06C538.544 253.31 544.153 259.981 540.847 267.204C540.847 280.899 543.228 292.848 549.207 305.549C553.353 314.356 553.271 328.742 546.319 337.429C541.887 342.967 523.659 347.264 510.869 351.498C506.836 352.834 496.05 354.293 490.774 355.051C483.142 356.148 470.685 355.606 462.457 355.606C447.897 355.606 433.439 355.944 419.027 356.059C406.844 356.157 395.025 356.967 382.822 356.967C361.203 356.967 337.047 357.839 315.891 356.412C294.514 354.971 275.397 355.466 253.86 356.034C232.533 356.597 210.256 356.059 188.84 356.059C170.205 356.059 151.783 355.152 133.535 355.152C122.841 355.152 111.336 354.775 100.735 355.177C94.3076 355.421 88.8059 356.513 81.9676 356.513Z" stroke="black" stroke-width="3" stroke-linecap="round"/>
</svg>
