<svg width="514" height="441" viewBox="0 0 514 441" fill="none" xmlns="http://www.w3.org/2000/svg">
<path d="M4.69518 317.824C4.69518 321.148 3.38964 324.502 3.38964 328.341C3.38964 339.148 12.8056 347.172 22.9727 348.867C50.9853 353.536 53.4689 311.654 29.2102 304.043C15.8446 299.85 2.08411 309.308 2.08411 323.046" stroke="black" stroke-width="3" stroke-linecap="round"/>
<path d="M24.2782 353.073C24.2782 366.156 25.5837 379.396 25.5837 392.24" stroke="black" stroke-width="3" stroke-linecap="round"/>
<path d="M28.1948 392.24C31.9935 398.412 32.095 405.463 33.417 412.403C34.1651 416.331 36.2271 420.103 37.4061 423.935C38.5035 427.501 39.1847 437.553 42.5557 439.239" stroke="black" stroke-width="3" stroke-linecap="round"/>
<path d="M28.1948 394.851C25.6099 404.616 20.3881 412.938 17.7505 422.557C16.3608 427.625 16.4095 432.853 15.1395 437.933" stroke="black" stroke-width="3" stroke-linecap="round"/>
<path d="M28.1948 371.351C33.527 366.019 42.0493 363.791 48.4306 359.674C54.8571 355.528 62.2219 350.213 64.7498 342.629" stroke="black" stroke-width="3" stroke-linecap="round"/>
<path d="M25.5838 372.656C21.2836 377.494 15.1395 385.622 15.1395 392.24" stroke="black" stroke-width="3" stroke-linecap="round"/>
<path d="M50.3224 328.235C54.2482 328.235 58.5614 325.86 62.446 324.888C69.1151 323.221 76.8527 322.88 83.718 322.88C92.3484 322.88 98.1218 321.733 104.916 326.897C117.845 336.723 127.499 349.113 143.741 354.714C155.656 358.823 168.056 361.641 180.186 365.052C200.861 370.867 222.263 371.863 243.109 376.432C288.622 386.408 336.187 369.481 381.006 363.342C399.655 360.787 414.297 351.74 430.616 343.037C443.575 336.125 459.616 326.557 467.73 313.806C476.955 299.31 484.555 284.887 488.779 267.99C493.983 247.174 500.872 226.409 503.878 205.066C505.139 196.11 507.069 187.274 508.192 178.29C509.358 168.959 508.836 159.521 510.2 150.25C512.755 132.876 510.09 114.997 509.53 97.6646C509.093 84.0901 504.319 71.3501 501.423 58.3187C498.064 43.2035 487.01 18.8701 471.747 12.2789C463.977 8.924 455.665 8.26254 447.276 8.26254C430.78 8.26254 413.57 7.7208 397.146 6.25435C364.358 3.32686 331.498 2.90735 298.595 2.90735C270.607 2.90735 242.75 3.73822 214.995 7.59314C195.282 10.331 174.635 13.3336 154.749 13.6177C139.235 13.8394 121.691 14.8629 106.552 18.3035C91.6795 21.6836 75.1311 20.7398 61.0328 27.0057C52.3922 30.846 42.1155 31.6644 37.6782 41.8069C33.4726 51.4198 31.5792 63.2041 31.5792 73.5662C31.5792 103.927 34.6963 132.789 46.6035 161.183C57.7841 187.844 65.3675 216.794 70.1069 245.23C71.973 256.427 74.9933 270.014 79.1066 280.708C81.3573 286.56 79.776 295.184 79.776 301.46C79.776 311.175 58.6218 315.653 54.3388 324.219" stroke="black" stroke-width="5" stroke-linecap="round"/>
</svg>
