<svg width="46" height="100" viewBox="0 0 46 100" fill="none" xmlns="http://www.w3.org/2000/svg">
<path d="M24.6286 40.8211C24.6286 47.6318 24.0086 54.7361 24.8677 61.5019C25.1802 63.9629 27.2968 70.6876 24.6286 72.0217" stroke="black" stroke-width="3" stroke-linecap="round"/>
<path d="M24.6287 72.0217C28.8 73.8094 47.3884 94.2012 36.4634 97.8428" stroke="black" stroke-width="3" stroke-linecap="round"/>
<path d="M28.9322 75.2493C24.4196 75.2493 17.809 73.997 13.8698 75.9666C7.07112 79.3659 3.11294 89.2387 7.4145 95.6911" stroke="black" stroke-width="3" stroke-linecap="round"/>
<path d="M26.7804 52.6558C32.5196 52.6558 42.7104 71.0499 38.6151 73.0976" stroke="black" stroke-width="3" stroke-linecap="round"/>
<path d="M19.2493 53.7317C15.7203 50.5948 5.31686 59.2118 2.03516 61.2628" stroke="black" stroke-width="3" stroke-linecap="round"/>
<path d="M38.6613 21.0032C37.4481 18.9841 37.0169 16.4701 35.6159 14.1385C31.6715 7.57397 23.0234 6.13643 16.2291 8.81792C-2.49057 16.206 11.2868 42.5525 28.7998 38.3215C38.4489 35.9903 43.3554 25.2229 38.3414 16.8782" stroke="black" stroke-width="3" stroke-linecap="round"/>
</svg>
